<svg width="125" height="37" viewBox="0 0 125 37" fill="#92A0B4" xmlns="http://www.w3.org/2000/svg">
<path d="M69.0344 14.1582C67.2585 14.1582 65.7884 14.8401 64.9659 16.0377V14.8721C64.9659 14.6518 64.812 14.4964 64.591 14.4964H62.6282C62.4083 14.4964 62.2533 14.6518 62.2533 14.8721V27.8531C62.2533 28.0757 62.4083 28.2299 62.6282 28.2299H64.591C64.8109 28.2299 64.9659 28.0757 64.9659 27.8531V20.2152C64.9659 18.1066 66.292 16.691 68.268 16.691C70.3681 16.691 71.4776 17.9623 71.4776 20.3672V27.852C71.4776 28.0746 71.6337 28.2288 71.8526 28.2288H73.8153C74.0374 28.2288 74.1914 28.0746 74.1914 27.852V19.7547C74.1914 16.3032 72.2154 14.1582 69.0344 14.1582Z" fill="#92A0B4"/>
<path d="M93.4995 18.7932C93.9757 17.3599 95.3193 16.538 96.9423 16.538C98.5653 16.538 99.7715 17.3599 100.248 18.7932C100.394 19.2305 100.459 19.7362 100.459 20.428C100.459 20.514 100.292 20.5437 100.207 20.5437H93.3379C93.2532 20.5437 93.2224 20.514 93.2224 20.428C93.2213 19.7373 93.3533 19.2305 93.4995 18.7932ZM96.8037 14.1265C93.9284 14.1265 91.8029 15.5873 90.976 18.1344C90.6549 19.0664 90.4768 20.0193 90.4768 21.6729C90.4768 22.6027 90.6219 23.4775 90.8738 24.3544L90.9023 24.4392C91.7028 27.0061 93.9778 28.5364 96.9566 28.5364C99.3548 28.5364 101.465 27.6087 102.744 25.9937C102.893 25.8031 102.878 25.6059 102.703 25.4671L101.444 24.3269C101.269 24.1881 101.078 24.2079 100.888 24.3985C100.255 25.13 99.0953 26.0014 97.1688 26.0014C95.3501 26.0014 93.9537 25.2137 93.4226 23.5678C93.3269 23.2726 93.2829 22.9024 93.2829 22.855C93.2829 22.7691 93.3126 22.7405 93.3984 22.7405H102.688C102.935 22.7405 103.093 22.5928 103.093 22.3637C103.093 20.0303 102.924 19.0454 102.63 18.1344C101.795 15.5873 99.6703 14.1265 96.8037 14.1265Z" fill="#92A0B4"/>
<path d="M109.713 25.8174H109.13C108.108 25.8174 107.728 25.3944 107.728 24.2585V8.66763C107.728 8.4462 107.728 8.28645 107.72 8.29086H105.391C105.17 8.29086 105.015 8.4462 105.015 8.66763V24.4128C105.015 27.1747 106.111 28.3513 108.671 28.3513H109.714C109.934 28.3513 110.09 28.197 110.09 27.9756V26.1942C110.088 25.9727 109.933 25.8174 109.713 25.8174Z" fill="#92A0B4"/>
<path d="M116.942 26.1855C115.01 26.1855 113.947 25.3934 113.947 23.9524C113.947 22.3219 115.017 21.6268 117.524 21.6268H120.467C120.551 21.6268 120.581 21.6565 120.581 21.7425V23.3696C120.582 25.1323 119.222 26.1855 116.942 26.1855ZM123.938 26.1921C123.391 26.1921 123.242 26.0379 123.206 25.3813V19.2009C123.206 15.5499 121.571 14.0396 117.371 14.0396C115.329 14.0396 113.539 14.6444 112.328 15.5907C112.175 15.7416 112.153 15.9003 112.254 16.1052L113.082 17.5186C113.19 17.6971 113.43 17.7158 113.611 17.5704C114.608 16.8565 115.692 16.4511 117.126 16.4511C119.994 16.4511 120.572 17.5583 120.581 19.3188C120.58 19.4014 120.551 19.4311 120.467 19.4311H117.126C113.329 19.4311 111.325 21.0275 111.325 24.0461C111.325 26.8157 113.241 28.5376 116.329 28.5376C118.245 28.5376 119.777 27.9041 120.589 26.7914C120.66 27.9306 121.011 28.3437 122.468 28.3437L124.266 28.3558V26.5237C124.267 26.3232 124.135 26.1921 123.938 26.1921Z" fill="#92A0B4"/>
<path d="M85.9522 22.5025C85.9522 24.5527 84.3238 26.2152 82.3127 26.2152C80.3016 26.2152 78.6731 24.7687 78.6731 22.1588V21.7446C78.6709 21.673 78.6698 21.6003 78.6698 21.5231C78.6698 21.4185 78.6709 21.3204 78.6731 21.2268V20.5999C78.6731 18.0187 80.3016 16.4014 82.3127 16.4014C84.3238 16.4014 85.9522 18.065 85.9522 20.1152V22.5025ZM86.2887 8.24023C86.0655 8.24023 85.9115 8.39557 85.9115 8.61591V15.3846C85.2353 14.5815 83.6794 14.1111 81.919 14.1111C79.3065 14.1111 77.2426 15.4782 76.4718 17.8083C76.1089 18.9133 75.9033 20.0017 75.9737 21.4405C76.0243 22.4695 76.0891 23.8135 76.5246 24.9571C77.4262 27.3312 79.2889 28.5342 81.7871 28.5342C83.7641 28.5342 85.2793 28.0208 85.9115 27.1505V27.8192C85.9115 28.0417 86.0655 28.196 86.2887 28.196H88.2503C88.4702 28.196 88.6264 28.0417 88.6264 27.8192V8.61701V8.24134H86.2887V8.24023Z" fill="#92A0B4"/>
<path d="M52.0768 21.0186H52.0714H49.0706L52.0714 13.7189V13.7244L52.0735 13.72L52.0757 13.7244V13.7189L55.0798 21.0186H52.0768ZM60.4677 27.4623L53.4843 10.1462C53.3293 9.6956 52.9279 8.92993 52.0714 8.92993C51.217 8.92993 50.8178 9.6967 50.6606 10.1462L43.6794 27.4623C43.6794 27.47 43.4111 28.0484 43.4639 28.1222C43.5167 28.1949 43.6069 28.2346 43.7201 28.2346H45.8621C46.0743 28.2346 46.2194 28.1244 46.3239 27.8809L48.0359 23.6714H52.0703H52.0757H56.098L57.8232 27.8809C57.9244 28.1244 58.0706 28.2346 58.285 28.2346H60.427C60.5391 28.2346 60.6304 28.1949 60.6821 28.1222C60.736 28.0484 60.4677 27.4711 60.4677 27.4623Z" fill="#92A0B4"/>
<path d="M20.3606 7.40621L18.1416 4.67186L15.9216 7.40621L12.9275 5.77684C12.9275 5.77684 16.5154 1.52437 16.8837 1.08811C17.2466 0.658456 17.5842 0.229905 18.1362 0.215583V0.213379C18.1384 0.213379 18.1416 0.21448 18.1416 0.21448C18.1438 0.21448 18.1449 0.213379 18.1482 0.213379V0.215583C18.6991 0.229905 19.0356 0.658456 19.3996 1.08811C19.7679 1.52437 23.3558 5.77684 23.3558 5.77684L20.3606 7.40621Z" fill="#92A0B4"/>
<path d="M12.9264 31.0008C12.9264 31.0008 16.5143 35.2544 16.8837 35.6918C17.2455 36.1193 17.582 36.5467 18.135 36.5632V36.5643C18.1361 36.5632 18.1394 36.5632 18.1405 36.5632C18.1405 36.5632 18.1438 36.5632 18.1471 36.5643V36.5632C18.698 36.5478 19.0356 36.1193 19.3996 35.6918C19.7668 35.2544 23.3547 31.0008 23.3547 31.0008L20.3606 29.3726L18.1405 32.108L15.9205 29.3726L12.9264 31.0008Z" fill="#92A0B4"/>
<path d="M11.959 9.05108L8.45903 8.68973L8.81969 12.1953L5.55287 13.1647C5.55287 13.1647 5.08885 7.6156 5.04157 7.04603C4.99429 6.48528 4.93161 5.94325 5.31097 5.54224L5.30986 5.54114C5.31096 5.54004 5.31426 5.53783 5.31426 5.53783C5.31536 5.53673 5.31646 5.53453 5.31756 5.53233L5.31976 5.53343C5.72001 5.15335 6.25879 5.21725 6.81957 5.26462C7.38805 5.31199 12.9266 5.7769 12.9266 5.7769L11.959 9.05108Z" fill="#92A0B4"/>
<path d="M23.355 31.0006C23.355 31.0006 28.8946 31.4655 29.4642 31.514C30.0217 31.5592 30.5615 31.6242 30.9618 31.2441L30.9629 31.2452C30.964 31.243 30.9662 31.2419 30.9662 31.2397C30.9662 31.2397 30.9695 31.2364 30.9717 31.2353H30.9706C31.3488 30.8343 31.2862 30.2923 31.2422 29.7326C31.1927 29.163 30.7276 23.6128 30.7276 23.6128L27.4608 24.5823L27.8214 28.0889L24.3215 27.7276L23.355 31.0006Z" fill="#92A0B4"/>
<path d="M7.17909 16.1644L4.44996 18.3887L7.17909 20.613L5.55283 23.6128C5.55283 23.6128 1.30849 20.0181 0.873059 19.649C0.444227 19.2855 0.016494 18.9461 0.00219961 18.3942H0C0 18.3931 0.00109897 18.3887 0.00109897 18.3887C0.00109897 18.3865 0 18.3854 0 18.381H0.00219961C0.016494 17.829 0.444227 17.4919 0.873059 17.1284C1.30849 16.7582 5.55283 13.1646 5.55283 13.1646L7.17909 16.1644Z" fill="#92A0B4"/>
<path d="M30.7276 23.6119C30.7276 23.6119 34.973 20.0171 35.4107 19.6469C35.8373 19.2845 36.2639 18.9474 36.2793 18.3932H36.2804C36.2793 18.3921 36.2793 18.3888 36.2793 18.3877C36.2793 18.3877 36.2793 18.3844 36.2804 18.3811H36.2793C36.2639 17.8292 35.8362 17.491 35.4107 17.1263C34.9741 16.7583 30.7276 13.1636 30.7276 13.1636L29.1024 16.1634L31.8326 18.3877L29.1024 20.612L30.7276 23.6119Z" fill="#92A0B4"/>
<path d="M8.82075 24.5813L8.46009 28.0879L11.96 27.7266L12.9277 30.9997C12.9277 30.9997 7.39021 31.4646 6.82063 31.512C6.26095 31.5582 5.71996 31.6221 5.31972 31.242L5.31862 31.2431C5.31752 31.242 5.31532 31.2387 5.31532 31.2387C5.31422 31.2376 5.31202 31.2365 5.30982 31.2343L5.31092 31.2332C4.93157 30.8322 4.99534 30.2913 5.04263 29.7305C5.08991 29.161 5.55503 23.6118 5.55503 23.6118L8.82075 24.5813Z" fill="#92A0B4"/>
<path d="M30.7274 13.1646C30.7274 13.1646 31.1925 7.61437 31.2398 7.0437C31.2848 6.48515 31.3497 5.94423 30.9704 5.54212V5.54102C30.9693 5.53992 30.9671 5.53882 30.966 5.53772C30.966 5.53772 30.9638 5.53551 30.9616 5.53221L30.9605 5.53331C30.5602 5.15433 30.0192 5.21823 29.4607 5.2612C28.8922 5.31077 23.3536 5.77568 23.3536 5.77568L24.3213 9.04875L27.8212 8.6874L27.4605 12.1951L30.7274 13.1646Z" fill="#92A0B4"/>
</svg>
