<svg width="102" height="28" viewBox="0 0 102 28" fill="#92A0B4" xmlns="http://www.w3.org/2000/svg">
<g clip-path="url(#clip0)">
<path d="M19.6456 11.9842H11.0743C10.968 11.9843 10.8661 12.0272 10.791 12.1034C10.7159 12.1797 10.6737 12.2831 10.6737 12.391V16.6448C10.6737 16.7526 10.7159 16.8561 10.791 16.9324C10.8661 17.0088 10.968 17.0518 11.0743 17.0519H14.418V22.3369C14.418 22.3369 13.6671 22.5967 11.5916 22.5967C9.1426 22.5967 5.72173 21.6884 5.72173 14.0525C5.72173 6.41504 9.28388 5.41012 12.6282 5.41012C15.5231 5.41012 16.7703 5.92743 17.5638 6.17682C17.622 6.18824 17.6819 6.18653 17.7393 6.17179C17.7967 6.15706 17.8502 6.12967 17.896 6.09157C17.9419 6.05348 17.9788 6.00561 18.0044 5.95136C18.0299 5.89712 18.0434 5.83783 18.0438 5.77772L19 1.66766C19.0018 1.60608 18.9888 1.54497 18.9621 1.48964C18.9355 1.4343 18.8959 1.38639 18.8469 1.35007C18.5246 1.11669 16.5585 0 11.5916 0C5.86941 0 0 2.4711 0 14.3503C0 26.2298 6.72002 28 12.3828 28C17.0716 28 19.9161 25.9662 19.9161 25.9662C19.9615 25.93 19.9971 25.8828 20.0198 25.8289C20.0425 25.7751 20.0515 25.7163 20.0459 25.658V12.391C20.046 12.2832 20.0038 12.1797 19.9288 12.1035C19.8537 12.0272 19.7519 11.9843 19.6456 11.9842Z" fill="#92A0B4"/>
<path d="M63.8185 1.42337C63.819 1.36996 63.8091 1.31698 63.7893 1.26747C63.7695 1.21797 63.7403 1.17291 63.7034 1.1349C63.6664 1.0969 63.6224 1.06668 63.5739 1.04601C63.5253 1.02533 63.4733 1.01458 63.4207 1.0144H58.5946C58.5419 1.0146 58.4897 1.02534 58.4411 1.046C58.3925 1.06667 58.3483 1.09685 58.3112 1.13483C58.2741 1.17281 58.2447 1.21784 58.2248 1.26735C58.2048 1.31686 58.1946 1.36987 58.1949 1.42337L58.1961 10.8906H50.6734V1.42337C50.6738 1.36995 50.6638 1.31697 50.644 1.26747C50.6242 1.21798 50.595 1.17294 50.558 1.13494C50.521 1.09695 50.4769 1.06674 50.4284 1.04605C50.3799 1.02537 50.3278 1.01461 50.2752 1.0144H45.4493C45.343 1.01499 45.2413 1.0584 45.1665 1.13509C45.0918 1.21179 45.0501 1.31548 45.0506 1.42337V27.0581C45.0501 27.1661 45.0917 27.2699 45.1665 27.3468C45.2412 27.4236 45.3429 27.4673 45.4493 27.4682H50.2752C50.3279 27.4678 50.38 27.4569 50.4285 27.4361C50.477 27.4153 50.5211 27.385 50.558 27.3469C50.595 27.3088 50.6243 27.2637 50.6441 27.2142C50.6638 27.1646 50.6738 27.1116 50.6734 27.0581V16.0932H58.1961L58.1831 27.0581C58.1826 27.1662 58.2244 27.2702 58.2993 27.3471C58.3743 27.424 58.4762 27.4675 58.5827 27.4682H63.4202C63.4729 27.4678 63.525 27.4569 63.5736 27.4361C63.6221 27.4153 63.6661 27.385 63.7031 27.3469C63.7401 27.3088 63.7693 27.2637 63.7891 27.2142C63.8089 27.1646 63.8189 27.1116 63.8185 27.0581V1.42337Z" fill="#92A0B4"/>
<path d="M28.7529 4.78709C28.7465 4.16376 28.5586 3.55628 28.2128 3.04113C27.8671 2.52598 27.3789 2.12618 26.8097 1.89209C26.2405 1.658 25.6159 1.60007 25.0144 1.72561C24.4128 1.85114 23.8613 2.15451 23.4293 2.59754C22.9973 3.04057 22.7041 3.60343 22.5866 4.21527C22.469 4.82711 22.5325 5.46057 22.7689 6.03588C23.0053 6.6112 23.4041 7.10265 23.9152 7.44836C24.4262 7.79407 25.0265 7.97858 25.6406 7.97867C26.0515 7.9769 26.4581 7.8929 26.8369 7.73149C27.2158 7.57007 27.5597 7.3344 27.8487 7.03796C28.1378 6.74153 28.3664 6.39014 28.5216 6.00391C28.6767 5.61768 28.7553 5.20418 28.7529 4.78709Z" fill="#92A0B4"/>
<path d="M28.4075 21.6506V9.81751C28.4078 9.70965 28.3659 9.60608 28.291 9.52953C28.2162 9.45298 28.1145 9.4097 28.0082 9.40918H23.1973C23.0846 9.41965 22.9796 9.47191 22.9025 9.55598C22.8253 9.64005 22.7814 9.75002 22.7791 9.86488V26.8181C22.7791 27.3162 23.085 27.4644 23.4808 27.4644H27.8153C28.2909 27.4644 28.4075 27.2274 28.4075 26.8101V21.6506Z" fill="#92A0B4"/>
<path d="M82.16 9.44775H77.3708C77.2645 9.4486 77.1628 9.49223 77.0881 9.56908C77.0134 9.64593 76.9718 9.74971 76.9724 9.85767V22.4271C76.0979 23.011 75.0754 23.3249 74.0287 23.3308C72.302 23.3308 71.8437 22.5353 71.8437 20.819V9.85767C71.8443 9.74972 71.8028 9.64592 71.7281 9.56906C71.6534 9.4922 71.5518 9.44857 71.4454 9.44775H66.5849C66.4785 9.44861 66.3767 9.49222 66.3019 9.56905C66.2271 9.64588 66.1854 9.74966 66.1858 9.85767V21.649C66.1858 26.747 68.9849 27.9942 72.8355 27.9942C75.9944 27.9942 78.5415 26.2227 78.5415 26.2227C78.5825 26.5737 78.6413 26.9222 78.7176 27.267C78.7525 27.3316 78.8033 27.386 78.865 27.4249C78.9268 27.4638 78.9974 27.4858 79.0699 27.4889L82.1621 27.475C82.2684 27.4742 82.37 27.4306 82.4448 27.3539C82.5196 27.2772 82.5614 27.1736 82.5611 27.0657L82.5597 9.85767C82.5602 9.74953 82.5184 9.64562 82.4434 9.56876C82.3685 9.4919 82.2665 9.44838 82.16 9.44775Z" fill="#92A0B4"/>
<path d="M95.2494 8.87185C93.6451 8.86189 92.0674 9.28718 90.6793 10.1037V1.42337C90.6796 1.36996 90.6696 1.317 90.6498 1.26753C90.6299 1.21806 90.6007 1.17304 90.5637 1.13506C90.5267 1.09707 90.4827 1.06686 90.4342 1.04616C90.3857 1.02546 90.3336 1.01467 90.281 1.0144H85.4412C85.3886 1.01465 85.3365 1.02543 85.288 1.04612C85.2394 1.06681 85.1954 1.09701 85.1583 1.13499C85.1213 1.17297 85.092 1.21799 85.0721 1.26747C85.0522 1.31695 85.0421 1.36993 85.0424 1.42337V27.0581C85.0418 27.1662 85.0836 27.2702 85.1585 27.3471C85.2334 27.424 85.3353 27.4675 85.4419 27.4682H88.7997C88.872 27.4674 88.9428 27.4468 89.0045 27.4085C89.0661 27.3701 89.1164 27.3155 89.15 27.2505C89.2471 26.8623 89.3152 26.4672 89.3539 26.0685C89.3539 26.0685 91.3328 27.9723 95.0794 27.9723C99.4776 27.9723 102 25.7077 102 17.8061C102 9.90445 97.9715 8.87185 95.2494 8.87185ZM93.3605 23.3151C92.3777 23.2897 91.4178 23.0085 90.5727 22.4986V14.3806C91.3339 13.9392 92.1765 13.6617 93.0479 13.5654C94.7726 13.4087 96.4344 13.9374 96.4344 18.1135C96.4344 22.5172 95.6844 23.3863 93.3605 23.3151Z" fill="#92A0B4"/>
<path d="M42.2783 9.4067H38.6581L38.6528 4.55195C38.6528 4.36815 38.5594 4.27637 38.3501 4.27637H33.4168C33.225 4.27637 33.1221 4.36206 33.1221 4.54913V9.56587C33.1221 9.56587 30.6497 10.1717 30.4825 10.2206C30.3992 10.2453 30.326 10.2967 30.2739 10.3671C30.2218 10.4376 30.1936 10.5233 30.1936 10.6114V13.7639C30.1932 13.8175 30.2033 13.8705 30.2231 13.9201C30.243 13.9696 30.2723 14.0147 30.3094 14.0528C30.3465 14.0908 30.3906 14.1211 30.4392 14.1418C30.4878 14.1625 30.5399 14.1733 30.5927 14.1735H33.1221V21.7578C33.1221 27.391 37.0148 27.9443 39.6415 27.9443C40.6159 27.9141 41.5821 27.7527 42.5146 27.4643C42.5849 27.4339 42.6443 27.3824 42.6849 27.3166C42.7254 27.2509 42.7451 27.1741 42.7413 27.0967L42.7452 23.6287C42.7441 23.521 42.7017 23.418 42.627 23.3416C42.5523 23.2652 42.4512 23.2213 42.3451 23.2194C42.1342 23.2194 41.5945 23.3066 41.0388 23.3066C39.2607 23.3066 38.6581 22.4674 38.6581 21.3809C38.6581 20.2954 38.6579 14.1735 38.6579 14.1735H42.2783C42.3311 14.1733 42.3833 14.1625 42.4319 14.1418C42.4805 14.1211 42.5246 14.0909 42.5618 14.0528C42.5989 14.0148 42.6282 13.9697 42.6481 13.9201C42.6681 13.8706 42.6781 13.8175 42.6778 13.7639V9.81515C42.6781 9.76169 42.6679 9.7087 42.648 9.65922C42.628 9.60975 42.5987 9.56475 42.5615 9.52681C42.5244 9.48887 42.4803 9.45873 42.4317 9.43813C42.3831 9.41751 42.331 9.40684 42.2783 9.4067Z" fill="#92A0B4"/>
</g>
<defs>
<clipPath id="clip0">
<rect width="102" height="28" fill="white"/>
</clipPath>
</defs>
</svg>
