<svg width="149" height="32" viewBox="0 0 149 32" fill="none" xmlns="http://www.w3.org/2000/svg">
<path d="M61.9655 6.40001V25.6H58.6554V10.5333H58.6113L52.6972 25.6H50.4904L44.4439 10.5333H44.3998V25.6H41.3544V6.40001H46.121L51.5938 20.6222H51.6821L57.4637 6.40001H61.9655ZM64.7019 7.86667C64.7019 7.33334 64.8784 6.88889 65.2756 6.53334C65.6729 6.17778 66.1142 6.00001 66.6438 6.00001C67.2176 6.00001 67.7031 6.17778 68.0562 6.53334C68.4092 6.88889 68.6299 7.33334 68.6299 7.86667C68.6299 8.40001 68.4534 8.84445 68.0562 9.20001C67.6589 9.55556 67.2176 9.73334 66.6438 9.73334C66.0701 9.73334 65.6287 9.55556 65.2756 9.20001C64.9226 8.80001 64.7019 8.35556 64.7019 7.86667ZM68.2768 11.8222V25.6H65.055V11.8222H68.2768ZM78.0307 23.2444C78.5162 23.2444 79.0458 23.1556 79.6195 22.8889C80.1933 22.6667 80.7229 22.3556 81.2084 22V25.0222C80.6788 25.3333 80.105 25.5556 79.443 25.6889C78.781 25.8222 78.0748 25.9111 77.2804 25.9111C75.2502 25.9111 73.6172 25.2889 72.3814 24C71.1015 22.7111 70.4836 21.0667 70.4836 19.1111C70.4836 16.8889 71.1456 15.0667 72.4255 13.6444C73.7055 12.2222 75.515 11.5111 77.8983 11.5111C78.5162 11.5111 79.1341 11.6 79.7078 11.7333C80.3257 11.8667 80.8112 12.0889 81.1643 12.2667V15.3778C80.6788 15.0222 80.1492 14.7111 79.6637 14.5333C79.1341 14.3556 78.6044 14.2222 78.0748 14.2222C76.7949 14.2222 75.7798 14.6222 74.9854 15.4667C74.1909 16.3111 73.8379 17.4222 73.8379 18.8444C73.8379 20.2222 74.2351 21.3333 74.9854 22.0889C75.7357 22.8444 76.7508 23.2444 78.0307 23.2444ZM90.3444 11.6C90.6092 11.6 90.8299 11.6 91.0505 11.6444C91.2712 11.6889 91.4477 11.7333 91.5801 11.7778V15.0667C91.4036 14.9333 91.1829 14.8 90.8299 14.7111C90.4768 14.6222 90.1237 14.5333 89.6382 14.5333C88.8438 14.5333 88.1818 14.8889 87.6521 15.5556C87.1225 16.2222 86.8136 17.2444 86.8136 18.6667V25.6H83.5917V11.8222H86.8136V14H86.8577C87.1666 13.2444 87.608 12.6667 88.1817 12.2222C88.7996 11.8222 89.5058 11.6 90.3444 11.6ZM91.7567 18.9333C91.7567 16.6667 92.4187 14.8444 93.6545 13.5111C94.9344 12.1778 96.6998 11.5111 98.9507 11.5111C101.069 11.5111 102.746 12.1333 103.938 13.4222C105.13 14.7111 105.748 16.4444 105.748 18.6222C105.748 20.8444 105.085 22.6222 103.85 23.9556C102.57 25.2889 100.849 25.9556 98.6418 25.9556C96.5233 25.9556 94.8461 25.3333 93.6104 24.0889C92.3746 22.8 91.7567 21.0667 91.7567 18.9333ZM95.111 18.8C95.111 20.2222 95.4199 21.3333 96.0819 22.0889C96.7439 22.8444 97.6708 23.2444 98.8624 23.2444C100.01 23.2444 100.937 22.8889 101.555 22.0889C102.173 21.3333 102.482 20.2222 102.482 18.7111C102.482 17.2444 102.173 16.1333 101.555 15.3333C100.937 14.5778 100.01 14.1778 98.9066 14.1778C97.7149 14.1778 96.8322 14.5778 96.1702 15.3778C95.4199 16.2222 95.111 17.3333 95.111 18.8ZM110.558 15.4667C110.558 15.9111 110.691 16.3111 111 16.5778C111.309 16.8444 111.926 17.1556 112.942 17.5556C114.221 18.0889 115.148 18.6667 115.634 19.2889C116.163 19.9556 116.428 20.7111 116.428 21.6444C116.428 22.9333 115.943 23.9556 114.928 24.7556C113.957 25.5556 112.588 25.9111 110.911 25.9111C110.338 25.9111 109.72 25.8222 109.013 25.6889C108.307 25.5556 107.734 25.3778 107.248 25.1556V21.9556C107.822 22.3556 108.484 22.7111 109.146 22.9333C109.808 23.1556 110.426 23.2889 111 23.2889C111.706 23.2889 112.279 23.2 112.588 22.9778C112.942 22.7556 113.118 22.4444 113.118 21.9556C113.118 21.5111 112.942 21.1556 112.588 20.8C112.235 20.4889 111.529 20.1333 110.558 19.7333C109.367 19.2444 108.528 18.6667 108.043 18.0444C107.557 17.4222 107.292 16.6222 107.292 15.6444C107.292 14.4 107.778 13.3778 108.749 12.5778C109.72 11.7778 111 11.3778 112.544 11.3778C113.03 11.3778 113.559 11.4222 114.133 11.5556C114.707 11.6889 115.237 11.8222 115.634 11.9556V15.1111C115.192 14.8444 114.707 14.5778 114.133 14.3556C113.559 14.1333 112.986 14.0444 112.456 14.0444C111.838 14.0444 111.353 14.1778 111.044 14.4C110.735 14.7111 110.558 15.0222 110.558 15.4667ZM117.796 18.9333C117.796 16.6667 118.458 14.8444 119.694 13.5111C120.974 12.1778 122.74 11.5111 124.99 11.5111C127.109 11.5111 128.786 12.1333 129.978 13.4222C131.169 14.7111 131.787 16.4444 131.787 18.6222C131.787 20.8444 131.125 22.6222 129.889 23.9556C128.609 25.2889 126.888 25.9556 124.681 25.9556C122.563 25.9556 120.886 25.3333 119.65 24.0889C118.458 22.8 117.796 21.0667 117.796 18.9333ZM121.151 18.8C121.151 20.2222 121.46 21.3333 122.122 22.0889C122.784 22.8444 123.71 23.2444 124.902 23.2444C126.05 23.2444 126.976 22.8889 127.594 22.0889C128.212 21.3333 128.521 20.2222 128.521 18.7111C128.521 17.2444 128.212 16.1333 127.594 15.3333C126.976 14.5778 126.05 14.1778 124.946 14.1778C123.755 14.1778 122.872 14.5778 122.21 15.3778C121.504 16.2222 121.151 17.3333 121.151 18.8ZM142.512 14.4889H137.701V25.6H134.435V14.4889H132.14V11.8222H134.435V9.91112C134.435 8.48889 134.921 7.28889 135.848 6.35556C136.774 5.42223 137.966 4.97778 139.423 4.97778C139.82 4.97778 140.173 5.02223 140.482 5.02223C140.791 5.02223 141.056 5.11112 141.276 5.20001V8.00001C141.188 7.95556 140.967 7.86667 140.702 7.77778C140.438 7.68889 140.129 7.64445 139.776 7.64445C139.114 7.64445 138.584 7.86667 138.231 8.26667C137.878 8.66667 137.701 9.33334 137.701 10.1333V11.7778H142.512V8.66667L145.734 7.68889V11.7778H149V14.4444H145.734V20.8889C145.734 21.7333 145.91 22.3111 146.175 22.6667C146.484 23.0222 146.97 23.2 147.632 23.2C147.808 23.2 148.029 23.1556 148.294 23.0667C148.559 22.9778 148.779 22.8889 148.956 22.7556V25.4222C148.735 25.5556 148.426 25.6444 147.941 25.7333C147.455 25.8222 147.014 25.8667 146.528 25.8667C145.16 25.8667 144.145 25.5111 143.483 24.8C142.821 24.0889 142.468 22.9778 142.468 21.5111L142.512 14.4889Z" fill="#92A0B4"/>
<path d="M15.0942 0H0V15.2H15.0942V0Z" fill="#92A0B4"/>
<path d="M31.7772 0H16.683V15.2H31.7772V0Z" fill="#92A0B4"/>
<path d="M15.0942 16.8H0V32H15.0942V16.8Z" fill="#92A0B4"/>
<path d="M31.7772 16.8H16.683V32H31.7772V16.8Z" fill="#92A0B4"/>
</svg>
