<svg width="116" height="55" viewBox="0 0 116 55" fill="#92A0B4" xmlns="http://www.w3.org/2000/svg">
<path fill-rule="evenodd" clip-rule="evenodd" d="M102.615 28.0316C102.615 21.7035 99.5419 16.7102 93.6676 16.7102C87.7684 16.7102 84.1992 21.7035 84.1992 27.9821C84.1992 35.4226 88.4129 39.1799 94.4608 39.1799C97.4103 39.1799 99.6411 38.5125 101.327 37.5731V32.6293C99.6411 33.4698 97.7078 33.9889 95.2539 33.9889C92.8496 33.9889 90.718 33.1484 90.4454 30.2316H102.566C102.566 29.9102 102.615 28.6248 102.615 28.0316ZM90.371 25.6832C90.371 22.89 92.0813 21.7282 93.6428 21.7282C95.1548 21.7282 96.7659 22.89 96.7659 25.6832H90.371Z" fill="#92A0B4"/>
<path fill-rule="evenodd" clip-rule="evenodd" d="M74.6317 16.7102C72.2026 16.7102 70.6411 17.8473 69.7735 18.6383L69.4513 17.1057H63.9983V45.9282L70.1949 44.6181L70.2197 37.6226C71.112 38.2653 72.4257 39.1799 74.6069 39.1799C79.0436 39.1799 83.0838 35.6203 83.0838 27.7844C83.059 20.6158 78.9693 16.7102 74.6317 16.7102ZM73.1445 33.7417C71.6821 33.7417 70.8146 33.2226 70.2197 32.5799L70.1949 23.4091C70.8394 22.6922 71.7317 22.1978 73.1445 22.1978C75.4 22.1978 76.9616 24.7192 76.9616 27.9574C76.9616 31.2698 75.4248 33.7417 73.1445 33.7417Z" fill="#92A0B4"/>
<path fill-rule="evenodd" clip-rule="evenodd" d="M55.4718 15.2517L61.6932 13.9169V8.89893L55.4718 10.209V15.2517Z" fill="#92A0B4"/>
<path d="M61.6932 17.1304H55.4718V38.7596H61.6932V17.1304Z" fill="#92A0B4"/>
<path fill-rule="evenodd" clip-rule="evenodd" d="M48.8043 18.9597L48.4077 17.1305H43.0539V38.7597H49.2505V24.1013C50.7129 22.1979 53.1915 22.544 53.9599 22.8159V17.1305C53.1667 16.8339 50.2667 16.2901 48.8043 18.9597Z" fill="#92A0B4"/>
<path fill-rule="evenodd" clip-rule="evenodd" d="M36.4112 11.7664L30.3633 13.0518L30.3385 32.8517C30.3385 36.5102 33.0898 39.2046 36.7582 39.2046C38.7907 39.2046 40.2778 38.8338 41.0958 38.3888V33.3709C40.3026 33.6922 36.3864 34.8293 36.3864 31.1709V22.3956H41.0958V17.1304H36.3864L36.4112 11.7664Z" fill="#92A0B4"/>
<path fill-rule="evenodd" clip-rule="evenodd" d="M19.6556 23.4091C19.6556 22.445 20.4487 22.0743 21.7624 22.0743C23.6462 22.0743 26.0257 22.6428 27.9094 23.6563V17.8473C25.8522 17.0316 23.8197 16.7102 21.7624 16.7102C16.7308 16.7102 13.3846 19.3304 13.3846 23.7057C13.3846 30.5282 22.8034 29.4405 22.8034 32.3821C22.8034 33.5192 21.812 33.89 20.424 33.89C18.3667 33.89 15.7393 33.0495 13.6573 31.9125V37.7956C15.9624 38.7844 18.2923 39.2046 20.424 39.2046C25.5795 39.2046 29.124 36.6585 29.124 32.2338C29.0992 24.8675 19.6556 26.1776 19.6556 23.4091Z" fill="#92A0B4"/>
</svg>
