<svg width="72" height="25" viewBox="0 0 72 25" fill="none" xmlns="http://www.w3.org/2000/svg">
<path d="M4.12503 17.8547C4.42802 18.6623 4.8475 19.3528 5.38355 19.9263C5.9196 20.4998 6.55466 20.9387 7.28873 21.243C8.02288 21.5474 8.82107 21.6995 9.68339 21.6995C10.5224 21.6995 11.3089 21.5415 12.0431 21.2254C12.7772 20.9094 13.4181 20.4646 13.9658 19.8912C14.5134 19.3176 14.9388 18.633 15.2418 17.8371C15.5447 17.0412 15.6962 16.1518 15.6962 15.1686V0H19.3668V24.5787H15.7312V22.2963C14.9155 23.1624 13.9541 23.8295 12.8471 24.2978C11.74 24.7659 10.5457 25 9.26391 25C7.95875 25 6.74108 24.7717 5.61073 24.3153C4.48046 23.8588 3.50157 23.2093 2.67429 22.3666C1.84701 21.5238 1.19439 20.5116 0.716667 19.3294C0.238863 18.1473 0 16.8306 0 15.3792V0H3.67059V15.1686C3.67059 16.1518 3.82204 17.0471 4.12503 17.8547Z" fill="#92A0B4"/>
<path d="M25.6939 0V8.95364C26.5096 8.13436 27.4535 7.48484 28.5256 7.00493C29.5976 6.52502 30.7629 6.2851 32.0213 6.2851C33.3265 6.2851 34.5499 6.53084 35.6919 7.02241C36.8339 7.51398 37.8243 8.18113 38.6633 9.02387C39.5024 9.86662 40.1666 10.8614 40.656 12.0084C41.1454 13.1555 41.3901 14.3727 41.3901 15.6601C41.3901 16.9475 41.1454 18.1589 40.656 19.2942C40.1666 20.4295 39.5024 21.4186 38.6633 22.2611C37.8243 23.1039 36.8339 23.771 35.6919 24.2626C34.5499 24.7542 33.3264 24.9999 32.0213 24.9999C30.7628 24.9999 29.5918 24.76 28.5081 24.2801C27.4244 23.8003 26.4747 23.1507 25.659 22.3314V24.5786H22.1632V0H25.6939ZM26.0959 18.0829C26.4105 18.832 26.8476 19.4874 27.4069 20.0492C27.9662 20.611 28.6188 21.0558 29.3645 21.3835C30.1104 21.7112 30.9144 21.8751 31.7767 21.8751C32.6157 21.8751 33.408 21.7112 34.1538 21.3835C34.8995 21.0558 35.5462 20.6111 36.094 20.0492C36.6417 19.4875 37.0786 18.832 37.4049 18.0829C37.7312 17.3338 37.8943 16.5263 37.8943 15.6601C37.8943 14.794 37.7312 13.9806 37.4049 13.2198C37.0786 12.459 36.6417 11.7978 36.094 11.236C35.5463 10.6742 34.8996 10.2353 34.1538 9.91929C33.408 9.60331 32.6156 9.44521 31.7767 9.44521C30.9377 9.44521 30.1453 9.60323 29.3996 9.91929C28.6538 10.2353 28.0013 10.6742 27.4419 11.236C26.8826 11.7978 26.4398 12.459 26.1135 13.2198C25.7872 13.9806 25.6241 14.794 25.6241 15.6601C25.624 16.5263 25.7813 17.3338 26.0959 18.0829Z" fill="#92A0B4"/>
<path d="M43.3823 12.0435C43.8483 10.9199 44.4893 9.93097 45.3049 9.07657C46.1205 8.22217 47.0878 7.54919 48.2065 7.05762C49.3251 6.56606 50.537 6.32031 51.8421 6.32031C53.1239 6.32031 54.3125 6.5544 55.4079 7.02251C56.5032 7.49069 57.447 8.14028 58.2394 8.9713C59.0318 9.80223 59.6495 10.7854 60.0922 11.9207C60.535 13.056 60.7564 14.2908 60.7564 15.6251V16.7838H46.2489C46.3654 17.5095 46.5985 18.1825 46.948 18.8027C47.2977 19.423 47.7346 19.9614 48.2589 20.4179C48.7833 20.8744 49.3776 21.2314 50.0418 21.4888C50.706 21.7463 51.4109 21.8751 52.1568 21.8751C54.2776 21.8751 55.9906 20.9973 57.2957 19.2416L59.8476 21.1376C58.962 22.3315 57.8667 23.2678 56.5616 23.9467C55.2564 24.6255 53.7882 24.9649 52.1568 24.9649C50.8284 24.9649 49.5874 24.7307 48.4338 24.2626C47.2802 23.7945 46.2781 23.139 45.4274 22.2963C44.5768 21.4535 43.9068 20.4646 43.4174 19.3293C42.928 18.1941 42.6832 16.9592 42.6832 15.625C42.6831 14.361 42.9162 13.1671 43.3823 12.0435ZM48.2939 10.6565C47.3034 11.4876 46.645 12.5936 46.3188 13.9747H57.1908C56.8878 12.5936 56.241 11.4876 55.2505 10.6565C54.2601 9.82561 53.1006 9.41011 51.7723 9.41011C50.4438 9.41011 49.2844 9.82561 48.2939 10.6565Z" fill="#92A0B4"/>
<path d="M67.3634 11.0603C66.6176 11.8796 66.2447 12.9914 66.2447 14.396V24.5787H62.7139V6.67131H66.2096V8.8834C66.6525 8.15774 67.2293 7.58421 67.9401 7.16288C68.6509 6.74147 69.4957 6.53076 70.4746 6.53076H71.6981V9.83134H70.2299C69.0646 9.83142 68.1091 10.241 67.3634 11.0603Z" fill="#92A0B4"/>
</svg>
