<svg width="196" height="193" viewBox="0 0 196 193" fill="none" xmlns="http://www.w3.org/2000/svg">
<circle cx="1.39568" cy="179.409" r="1.39568" fill="#F4B941"/>
<circle cx="13.1051" cy="179.409" r="1.39568" fill="#F4B941"/>
<circle cx="24.8148" cy="179.409" r="1.39568" fill="#F4B941"/>
<circle cx="36.5245" cy="179.409" r="1.39568" fill="#F4B941"/>
<circle cx="48.2341" cy="179.409" r="1.39568" fill="#F4B941"/>
<circle cx="59.9438" cy="179.409" r="1.39568" fill="#F4B941"/>
<circle cx="71.6533" cy="179.409" r="1.39568" fill="#F4B941"/>
<circle cx="83.363" cy="179.409" r="1.39568" fill="#F4B941"/>
<circle cx="95.0725" cy="179.409" r="1.39568" fill="#F4B941"/>
<circle cx="106.782" cy="179.409" r="1.39568" fill="#F4B941"/>
<circle cx="118.492" cy="179.409" r="1.39568" fill="#F4B941"/>
<circle cx="130.201" cy="179.409" r="1.39568" fill="#F4B941"/>
<circle cx="141.911" cy="179.409" r="1.39568" fill="#F4B941"/>
<circle cx="153.621" cy="179.409" r="1.39568" fill="#F4B941"/>
<circle cx="165.33" cy="179.409" r="1.39568" fill="#F4B941"/>
<circle cx="177.04" cy="179.409" r="1.39568" fill="#F4B941"/>
<circle cx="188.749" cy="179.409" r="1.39568" fill="#F4B941"/>
<circle cx="1.39568" cy="155.674" r="1.39568" fill="#F4B941"/>
<circle cx="13.1051" cy="155.674" r="1.39568" fill="#F4B941"/>
<circle cx="24.8148" cy="155.674" r="1.39568" fill="#F4B941"/>
<circle cx="36.5245" cy="155.674" r="1.39568" fill="#F4B941"/>
<circle cx="48.2341" cy="155.674" r="1.39568" fill="#F4B941"/>
<circle cx="59.9438" cy="155.674" r="1.39568" fill="#F4B941"/>
<circle cx="71.6533" cy="155.674" r="1.39568" fill="#F4B941"/>
<circle cx="83.363" cy="155.674" r="1.39568" fill="#F4B941"/>
<circle cx="95.0725" cy="155.674" r="1.39568" fill="#F4B941"/>
<circle cx="106.782" cy="155.674" r="1.39568" fill="#F4B941"/>
<circle cx="118.492" cy="155.674" r="1.39568" fill="#F4B941"/>
<circle cx="130.201" cy="155.674" r="1.39568" fill="#F4B941"/>
<circle cx="141.911" cy="155.674" r="1.39568" fill="#F4B941"/>
<circle cx="153.621" cy="155.674" r="1.39568" fill="#F4B941"/>
<circle cx="165.33" cy="155.674" r="1.39568" fill="#F4B941"/>
<circle cx="177.04" cy="155.674" r="1.39568" fill="#F4B941"/>
<circle cx="188.749" cy="155.674" r="1.39568" fill="#F4B941"/>
<circle cx="1.39568" cy="131.938" r="1.39568" fill="#F4B941"/>
<circle cx="13.1051" cy="131.938" r="1.39568" fill="#F4B941"/>
<circle cx="24.8148" cy="131.938" r="1.39568" fill="#F4B941"/>
<circle cx="36.5245" cy="131.938" r="1.39568" fill="#F4B941"/>
<circle cx="48.2341" cy="131.938" r="1.39568" fill="#F4B941"/>
<circle cx="59.9438" cy="131.938" r="1.39568" fill="#F4B941"/>
<circle cx="71.6533" cy="131.938" r="1.39568" fill="#F4B941"/>
<circle cx="83.363" cy="131.938" r="1.39568" fill="#F4B941"/>
<circle cx="95.0725" cy="131.938" r="1.39568" fill="#F4B941"/>
<circle cx="106.782" cy="131.938" r="1.39568" fill="#F4B941"/>
<circle cx="118.492" cy="131.938" r="1.39568" fill="#F4B941"/>
<circle cx="130.201" cy="131.938" r="1.39568" fill="#F4B941"/>
<circle cx="141.911" cy="131.938" r="1.39568" fill="#F4B941"/>
<circle cx="153.621" cy="131.938" r="1.39568" fill="#F4B941"/>
<circle cx="165.33" cy="131.938" r="1.39568" fill="#F4B941"/>
<circle cx="177.04" cy="131.938" r="1.39568" fill="#F4B941"/>
<circle cx="188.749" cy="131.938" r="1.39568" fill="#F4B941"/>
<circle cx="1.39568" cy="108.203" r="1.39568" fill="#F4B941"/>
<circle cx="13.1051" cy="108.203" r="1.39568" fill="#F4B941"/>
<circle cx="24.8148" cy="108.203" r="1.39568" fill="#F4B941"/>
<circle cx="36.5245" cy="108.203" r="1.39568" fill="#F4B941"/>
<circle cx="48.2341" cy="108.203" r="1.39568" fill="#F4B941"/>
<circle cx="59.9438" cy="108.203" r="1.39568" fill="#F4B941"/>
<circle cx="71.6533" cy="108.203" r="1.39568" fill="#F4B941"/>
<circle cx="83.363" cy="108.203" r="1.39568" fill="#F4B941"/>
<circle cx="95.0725" cy="108.203" r="1.39568" fill="#F4B941"/>
<circle cx="106.782" cy="108.203" r="1.39568" fill="#F4B941"/>
<circle cx="118.492" cy="108.203" r="1.39568" fill="#F4B941"/>
<circle cx="130.201" cy="108.203" r="1.39568" fill="#F4B941"/>
<circle cx="141.911" cy="108.203" r="1.39568" fill="#F4B941"/>
<circle cx="153.621" cy="108.203" r="1.39568" fill="#F4B941"/>
<circle cx="165.33" cy="108.203" r="1.39568" fill="#F4B941"/>
<circle cx="177.04" cy="108.203" r="1.39568" fill="#F4B941"/>
<circle cx="188.749" cy="108.203" r="1.39568" fill="#F4B941"/>
<circle cx="1.39568" cy="84.4677" r="1.39568" fill="#F4B941"/>
<circle cx="13.1051" cy="84.4677" r="1.39568" fill="#F4B941"/>
<circle cx="24.8148" cy="84.4677" r="1.39568" fill="#F4B941"/>
<circle cx="36.5245" cy="84.4677" r="1.39568" fill="#F4B941"/>
<circle cx="48.2341" cy="84.4677" r="1.39568" fill="#F4B941"/>
<circle cx="59.9438" cy="84.4677" r="1.39568" fill="#F4B941"/>
<circle cx="71.6533" cy="84.4677" r="1.39568" fill="#F4B941"/>
<circle cx="83.363" cy="84.4677" r="1.39568" fill="#F4B941"/>
<circle cx="95.0725" cy="84.4677" r="1.39568" fill="#F4B941"/>
<circle cx="106.782" cy="84.4677" r="1.39568" fill="#F4B941"/>
<circle cx="118.492" cy="84.4677" r="1.39568" fill="#F4B941"/>
<circle cx="130.201" cy="84.4677" r="1.39568" fill="#F4B941"/>
<circle cx="141.911" cy="84.4677" r="1.39568" fill="#F4B941"/>
<circle cx="153.621" cy="84.4677" r="1.39568" fill="#F4B941"/>
<circle cx="165.33" cy="84.4677" r="1.39568" fill="#F4B941"/>
<circle cx="177.04" cy="84.4677" r="1.39568" fill="#F4B941"/>
<circle cx="188.749" cy="84.4677" r="1.39568" fill="#F4B941"/>
<circle cx="1.39568" cy="60.7324" r="1.39568" fill="#F4B941"/>
<circle cx="13.1051" cy="60.7324" r="1.39568" fill="#F4B941"/>
<circle cx="24.8148" cy="60.7324" r="1.39568" fill="#F4B941"/>
<circle cx="36.5245" cy="60.7324" r="1.39568" fill="#F4B941"/>
<circle cx="48.2341" cy="60.7324" r="1.39568" fill="#F4B941"/>
<circle cx="59.9438" cy="60.7324" r="1.39568" fill="#F4B941"/>
<circle cx="71.6533" cy="60.7324" r="1.39568" fill="#F4B941"/>
<circle cx="83.363" cy="60.7324" r="1.39568" fill="#F4B941"/>
<circle cx="95.0725" cy="60.7324" r="1.39568" fill="#F4B941"/>
<circle cx="106.782" cy="60.7324" r="1.39568" fill="#F4B941"/>
<circle cx="118.492" cy="60.7324" r="1.39568" fill="#F4B941"/>
<circle cx="130.201" cy="60.7324" r="1.39568" fill="#F4B941"/>
<circle cx="141.911" cy="60.7324" r="1.39568" fill="#F4B941"/>
<circle cx="153.621" cy="60.7324" r="1.39568" fill="#F4B941"/>
<circle cx="165.33" cy="60.7324" r="1.39568" fill="#F4B941"/>
<circle cx="177.04" cy="60.7324" r="1.39568" fill="#F4B941"/>
<circle cx="188.749" cy="60.7324" r="1.39568" fill="#F4B941"/>
<circle cx="1.39568" cy="36.9968" r="1.39568" fill="#F4B941"/>
<circle cx="13.1051" cy="36.9968" r="1.39568" fill="#F4B941"/>
<circle cx="24.8148" cy="36.9968" r="1.39568" fill="#F4B941"/>
<circle cx="36.5245" cy="36.9968" r="1.39568" fill="#F4B941"/>
<circle cx="48.2341" cy="36.9968" r="1.39568" fill="#F4B941"/>
<circle cx="59.9438" cy="36.9968" r="1.39568" fill="#F4B941"/>
<circle cx="71.6533" cy="36.9968" r="1.39568" fill="#F4B941"/>
<circle cx="83.363" cy="36.9968" r="1.39568" fill="#F4B941"/>
<circle cx="95.0725" cy="36.9968" r="1.39568" fill="#F4B941"/>
<circle cx="106.782" cy="36.9968" r="1.39568" fill="#F4B941"/>
<circle cx="118.492" cy="36.9968" r="1.39568" fill="#F4B941"/>
<circle cx="130.201" cy="36.9968" r="1.39568" fill="#F4B941"/>
<circle cx="141.911" cy="36.9968" r="1.39568" fill="#F4B941"/>
<circle cx="153.621" cy="36.9968" r="1.39568" fill="#F4B941"/>
<circle cx="165.33" cy="36.9968" r="1.39568" fill="#F4B941"/>
<circle cx="177.04" cy="36.9968" r="1.39568" fill="#F4B941"/>
<circle cx="188.749" cy="36.9968" r="1.39568" fill="#F4B941"/>
<circle cx="1.39568" cy="13.2614" r="1.39568" fill="#F4B941"/>
<circle cx="13.1051" cy="13.2614" r="1.39568" fill="#F4B941"/>
<circle cx="24.8148" cy="13.2614" r="1.39568" fill="#F4B941"/>
<circle cx="36.5245" cy="13.2614" r="1.39568" fill="#F4B941"/>
<circle cx="48.2341" cy="13.2614" r="1.39568" fill="#F4B941"/>
<circle cx="59.9438" cy="13.2614" r="1.39568" fill="#F4B941"/>
<circle cx="71.6533" cy="13.2614" r="1.39568" fill="#F4B941"/>
<circle cx="83.363" cy="13.2614" r="1.39568" fill="#F4B941"/>
<circle cx="95.0725" cy="13.2614" r="1.39568" fill="#F4B941"/>
<circle cx="106.782" cy="13.2614" r="1.39568" fill="#F4B941"/>
<circle cx="118.492" cy="13.2614" r="1.39568" fill="#F4B941"/>
<circle cx="130.201" cy="13.2614" r="1.39568" fill="#F4B941"/>
<circle cx="141.911" cy="13.2614" r="1.39568" fill="#F4B941"/>
<circle cx="153.621" cy="13.2614" r="1.39568" fill="#F4B941"/>
<circle cx="165.33" cy="13.2614" r="1.39568" fill="#F4B941"/>
<circle cx="177.04" cy="13.2614" r="1.39568" fill="#F4B941"/>
<circle cx="188.749" cy="13.2614" r="1.39568" fill="#F4B941"/>
<circle cx="7.25042" cy="191.277" r="1.39568" fill="#F4B941"/>
<circle cx="18.96" cy="191.277" r="1.39568" fill="#F4B941"/>
<circle cx="30.6697" cy="191.277" r="1.39568" fill="#F4B941"/>
<circle cx="42.3793" cy="191.277" r="1.39568" fill="#F4B941"/>
<circle cx="54.089" cy="191.277" r="1.39568" fill="#F4B941"/>
<circle cx="65.7985" cy="191.277" r="1.39568" fill="#F4B941"/>
<circle cx="77.5082" cy="191.277" r="1.39568" fill="#F4B941"/>
<circle cx="89.2178" cy="191.277" r="1.39568" fill="#F4B941"/>
<circle cx="100.928" cy="191.277" r="1.39568" fill="#F4B941"/>
<circle cx="112.637" cy="191.277" r="1.39568" fill="#F4B941"/>
<circle cx="124.347" cy="191.277" r="1.39568" fill="#F4B941"/>
<circle cx="136.056" cy="191.277" r="1.39568" fill="#F4B941"/>
<circle cx="147.766" cy="191.277" r="1.39568" fill="#F4B941"/>
<circle cx="159.475" cy="191.277" r="1.39568" fill="#F4B941"/>
<circle cx="171.185" cy="191.277" r="1.39568" fill="#F4B941"/>
<circle cx="182.895" cy="191.277" r="1.39568" fill="#F4B941"/>
<circle cx="194.604" cy="191.277" r="1.39568" fill="#F4B941"/>
<circle cx="7.25042" cy="167.542" r="1.39568" fill="#F4B941"/>
<circle cx="18.96" cy="167.542" r="1.39568" fill="#F4B941"/>
<circle cx="30.6697" cy="167.542" r="1.39568" fill="#F4B941"/>
<circle cx="42.3793" cy="167.542" r="1.39568" fill="#F4B941"/>
<circle cx="54.089" cy="167.542" r="1.39568" fill="#F4B941"/>
<circle cx="65.7985" cy="167.542" r="1.39568" fill="#F4B941"/>
<circle cx="77.5082" cy="167.542" r="1.39568" fill="#F4B941"/>
<circle cx="89.2178" cy="167.542" r="1.39568" fill="#F4B941"/>
<circle cx="100.928" cy="167.542" r="1.39568" fill="#F4B941"/>
<circle cx="112.637" cy="167.542" r="1.39568" fill="#F4B941"/>
<circle cx="124.347" cy="167.542" r="1.39568" fill="#F4B941"/>
<circle cx="136.056" cy="167.542" r="1.39568" fill="#F4B941"/>
<circle cx="147.766" cy="167.542" r="1.39568" fill="#F4B941"/>
<circle cx="159.475" cy="167.542" r="1.39568" fill="#F4B941"/>
<circle cx="171.185" cy="167.542" r="1.39568" fill="#F4B941"/>
<circle cx="182.895" cy="167.542" r="1.39568" fill="#F4B941"/>
<circle cx="194.604" cy="167.542" r="1.39568" fill="#F4B941"/>
<circle cx="7.25042" cy="143.807" r="1.39568" fill="#F4B941"/>
<circle cx="18.96" cy="143.807" r="1.39568" fill="#F4B941"/>
<circle cx="30.6697" cy="143.807" r="1.39568" fill="#F4B941"/>
<circle cx="42.3793" cy="143.807" r="1.39568" fill="#F4B941"/>
<circle cx="54.089" cy="143.807" r="1.39568" fill="#F4B941"/>
<circle cx="65.7985" cy="143.807" r="1.39568" fill="#F4B941"/>
<circle cx="77.5082" cy="143.807" r="1.39568" fill="#F4B941"/>
<circle cx="89.2178" cy="143.807" r="1.39568" fill="#F4B941"/>
<circle cx="100.928" cy="143.807" r="1.39568" fill="#F4B941"/>
<circle cx="112.637" cy="143.807" r="1.39568" fill="#F4B941"/>
<circle cx="124.347" cy="143.807" r="1.39568" fill="#F4B941"/>
<circle cx="136.056" cy="143.807" r="1.39568" fill="#F4B941"/>
<circle cx="147.766" cy="143.807" r="1.39568" fill="#F4B941"/>
<circle cx="159.475" cy="143.807" r="1.39568" fill="#F4B941"/>
<circle cx="171.185" cy="143.807" r="1.39568" fill="#F4B941"/>
<circle cx="182.895" cy="143.807" r="1.39568" fill="#F4B941"/>
<circle cx="194.604" cy="143.807" r="1.39568" fill="#F4B941"/>
<circle cx="7.25042" cy="120.072" r="1.39568" fill="#F4B941"/>
<circle cx="18.96" cy="120.072" r="1.39568" fill="#F4B941"/>
<circle cx="30.6697" cy="120.072" r="1.39568" fill="#F4B941"/>
<circle cx="42.3793" cy="120.072" r="1.39568" fill="#F4B941"/>
<circle cx="54.089" cy="120.072" r="1.39568" fill="#F4B941"/>
<circle cx="65.7985" cy="120.072" r="1.39568" fill="#F4B941"/>
<circle cx="77.5082" cy="120.072" r="1.39568" fill="#F4B941"/>
<circle cx="89.2178" cy="120.072" r="1.39568" fill="#F4B941"/>
<circle cx="100.928" cy="120.072" r="1.39568" fill="#F4B941"/>
<circle cx="112.637" cy="120.072" r="1.39568" fill="#F4B941"/>
<circle cx="124.347" cy="120.072" r="1.39568" fill="#F4B941"/>
<circle cx="136.056" cy="120.072" r="1.39568" fill="#F4B941"/>
<circle cx="147.766" cy="120.072" r="1.39568" fill="#F4B941"/>
<circle cx="159.475" cy="120.072" r="1.39568" fill="#F4B941"/>
<circle cx="171.185" cy="120.072" r="1.39568" fill="#F4B941"/>
<circle cx="182.895" cy="120.072" r="1.39568" fill="#F4B941"/>
<circle cx="194.604" cy="120.072" r="1.39568" fill="#F4B941"/>
<circle cx="7.25042" cy="96.3364" r="1.39568" fill="#F4B941"/>
<circle cx="18.96" cy="96.3364" r="1.39568" fill="#F4B941"/>
<circle cx="30.6697" cy="96.3364" r="1.39568" fill="#F4B941"/>
<circle cx="42.3793" cy="96.3364" r="1.39568" fill="#F4B941"/>
<circle cx="54.089" cy="96.3364" r="1.39568" fill="#F4B941"/>
<circle cx="65.7985" cy="96.3364" r="1.39568" fill="#F4B941"/>
<circle cx="77.5082" cy="96.3364" r="1.39568" fill="#F4B941"/>
<circle cx="89.2178" cy="96.3364" r="1.39568" fill="#F4B941"/>
<circle cx="100.928" cy="96.3364" r="1.39568" fill="#F4B941"/>
<circle cx="112.637" cy="96.3364" r="1.39568" fill="#F4B941"/>
<circle cx="124.347" cy="96.3364" r="1.39568" fill="#F4B941"/>
<circle cx="136.056" cy="96.3364" r="1.39568" fill="#F4B941"/>
<circle cx="147.766" cy="96.3364" r="1.39568" fill="#F4B941"/>
<circle cx="159.475" cy="96.3364" r="1.39568" fill="#F4B941"/>
<circle cx="171.185" cy="96.3364" r="1.39568" fill="#F4B941"/>
<circle cx="182.895" cy="96.3364" r="1.39568" fill="#F4B941"/>
<circle cx="194.604" cy="96.3364" r="1.39568" fill="#F4B941"/>
<circle cx="7.25042" cy="72.601" r="1.39568" fill="#F4B941"/>
<circle cx="18.96" cy="72.601" r="1.39568" fill="#F4B941"/>
<circle cx="30.6697" cy="72.601" r="1.39568" fill="#F4B941"/>
<circle cx="42.3793" cy="72.601" r="1.39568" fill="#F4B941"/>
<circle cx="54.089" cy="72.601" r="1.39568" fill="#F4B941"/>
<circle cx="65.7985" cy="72.601" r="1.39568" fill="#F4B941"/>
<circle cx="77.5082" cy="72.601" r="1.39568" fill="#F4B941"/>
<circle cx="89.2178" cy="72.601" r="1.39568" fill="#F4B941"/>
<circle cx="100.928" cy="72.601" r="1.39568" fill="#F4B941"/>
<circle cx="112.637" cy="72.601" r="1.39568" fill="#F4B941"/>
<circle cx="124.347" cy="72.601" r="1.39568" fill="#F4B941"/>
<circle cx="136.056" cy="72.601" r="1.39568" fill="#F4B941"/>
<circle cx="147.766" cy="72.601" r="1.39568" fill="#F4B941"/>
<circle cx="159.475" cy="72.601" r="1.39568" fill="#F4B941"/>
<circle cx="171.185" cy="72.601" r="1.39568" fill="#F4B941"/>
<circle cx="182.895" cy="72.601" r="1.39568" fill="#F4B941"/>
<circle cx="194.604" cy="72.601" r="1.39568" fill="#F4B941"/>
<circle cx="7.25042" cy="48.8661" r="1.39568" fill="#F4B941"/>
<circle cx="18.96" cy="48.8661" r="1.39568" fill="#F4B941"/>
<circle cx="30.6697" cy="48.8661" r="1.39568" fill="#F4B941"/>
<circle cx="42.3793" cy="48.8661" r="1.39568" fill="#F4B941"/>
<circle cx="54.089" cy="48.8661" r="1.39568" fill="#F4B941"/>
<circle cx="65.7985" cy="48.8661" r="1.39568" fill="#F4B941"/>
<circle cx="77.5082" cy="48.8661" r="1.39568" fill="#F4B941"/>
<circle cx="89.2178" cy="48.8661" r="1.39568" fill="#F4B941"/>
<circle cx="100.928" cy="48.8661" r="1.39568" fill="#F4B941"/>
<circle cx="112.637" cy="48.8661" r="1.39568" fill="#F4B941"/>
<circle cx="124.347" cy="48.8661" r="1.39568" fill="#F4B941"/>
<circle cx="136.056" cy="48.8661" r="1.39568" fill="#F4B941"/>
<circle cx="147.766" cy="48.8661" r="1.39568" fill="#F4B941"/>
<circle cx="159.475" cy="48.8661" r="1.39568" fill="#F4B941"/>
<circle cx="171.185" cy="48.8661" r="1.39568" fill="#F4B941"/>
<circle cx="182.895" cy="48.8661" r="1.39568" fill="#F4B941"/>
<circle cx="194.604" cy="48.8661" r="1.39568" fill="#F4B941"/>
<circle cx="7.25042" cy="25.1308" r="1.39568" fill="#F4B941"/>
<circle cx="18.96" cy="25.1308" r="1.39568" fill="#F4B941"/>
<circle cx="30.6697" cy="25.1308" r="1.39568" fill="#F4B941"/>
<circle cx="42.3793" cy="25.1308" r="1.39568" fill="#F4B941"/>
<circle cx="54.089" cy="25.1308" r="1.39568" fill="#F4B941"/>
<circle cx="65.7985" cy="25.1308" r="1.39568" fill="#F4B941"/>
<circle cx="77.5082" cy="25.1308" r="1.39568" fill="#F4B941"/>
<circle cx="89.2178" cy="25.1308" r="1.39568" fill="#F4B941"/>
<circle cx="100.928" cy="25.1308" r="1.39568" fill="#F4B941"/>
<circle cx="112.637" cy="25.1308" r="1.39568" fill="#F4B941"/>
<circle cx="124.347" cy="25.1308" r="1.39568" fill="#F4B941"/>
<circle cx="136.056" cy="25.1308" r="1.39568" fill="#F4B941"/>
<circle cx="147.766" cy="25.1308" r="1.39568" fill="#F4B941"/>
<circle cx="159.475" cy="25.1308" r="1.39568" fill="#F4B941"/>
<circle cx="171.185" cy="25.1308" r="1.39568" fill="#F4B941"/>
<circle cx="182.895" cy="25.1308" r="1.39568" fill="#F4B941"/>
<circle cx="194.604" cy="25.1308" r="1.39568" fill="#F4B941"/>
<circle cx="7.25042" cy="1.39568" r="1.39568" fill="#F4B941"/>
<circle cx="18.96" cy="1.39568" r="1.39568" fill="#F4B941"/>
<circle cx="30.6697" cy="1.39568" r="1.39568" fill="#F4B941"/>
<circle cx="42.3793" cy="1.39568" r="1.39568" fill="#F4B941"/>
<circle cx="54.089" cy="1.39568" r="1.39568" fill="#F4B941"/>
<circle cx="65.7985" cy="1.39568" r="1.39568" fill="#F4B941"/>
<circle cx="77.5082" cy="1.39568" r="1.39568" fill="#F4B941"/>
<circle cx="89.2178" cy="1.39568" r="1.39568" fill="#F4B941"/>
<circle cx="100.928" cy="1.39568" r="1.39568" fill="#F4B941"/>
<circle cx="112.637" cy="1.39568" r="1.39568" fill="#F4B941"/>
<circle cx="124.347" cy="1.39568" r="1.39568" fill="#F4B941"/>
<circle cx="136.056" cy="1.39568" r="1.39568" fill="#F4B941"/>
<circle cx="147.766" cy="1.39568" r="1.39568" fill="#F4B941"/>
<circle cx="159.475" cy="1.39568" r="1.39568" fill="#F4B941"/>
<circle cx="171.185" cy="1.39568" r="1.39568" fill="#F4B941"/>
<circle cx="182.895" cy="1.39568" r="1.39568" fill="#F4B941"/>
<circle cx="194.604" cy="1.39568" r="1.39568" fill="#F4B941"/>
</svg>
